<svg width="64" height="64" viewBox="0 0 64 64" fill="none" xmlns="http://www.w3.org/2000/svg">
    <path d="M32 8C17.6 8 8 17.6 8 32c0 14.4 9.6 24 24 24s24-9.6 24-24c0-14.4-9.6-24-24-24zm0 44c-11.2 0-20-8.8-20-20s8.8-20 20-20 20 8.8 20 20-8.8 20-20 20z" fill="#2E7D32"/>
    <path d="M32 16c-8.8 0-16 7.2-16 16s7.2 16 16 16 16-7.2 16-16-7.2-16-16-16zm0 28c-6.4 0-12-5.6-12-12s5.6-12 12-12 12 5.6 12 12-5.6 12-12 12z" fill="#2E7D32"/>
    <path d="M32 24c-4.4 0-8 3.6-8 8s3.6 8 8 8 8-3.6 8-8-3.6-8-8-8z" fill="#2E7D32"/>
</svg> 